<?xml version="1.0" encoding="UTF-8" standalone="no"?>
<svg width="200" height="200" viewBox="0 0 200 200" fill="none" xmlns="http://www.w3.org/2000/svg">
  <!-- Background circle with gradient -->
  <circle cx="100" cy="100" r="95" fill="url(#paint0_linear)" />
  
  <!-- Pantry shelf outline -->
  <path d="M50 60H150V160H50V60Z" stroke="white" stroke-width="4" stroke-linecap="round" stroke-linejoin="round"/>
  
  <!-- Shelf dividers -->
  <path d="M50 93H150" stroke="white" stroke-width="3" stroke-linecap="round"/>
  <path d="M50 126H150" stroke="white" stroke-width="3" stroke-linecap="round"/>
  
  <!-- Items on shelves -->
  <!-- Top shelf -->
  <rect x="60" y="70" width="20" height="15" rx="2" fill="white" opacity="0.9"/>
  <rect x="90" y="65" width="15" height="20" rx="2" fill="white" opacity="0.7"/>
  <rect x="115" y="70" width="25" height="15" rx="2" fill="white" opacity="0.8"/>
  
  <!-- Middle shelf -->
  <circle cx="70" cy="110" r="8" fill="white" opacity="0.8"/>
  <rect x="90" y="100" width="18" height="18" rx="9" fill="white" opacity="0.9"/>
  <rect x="120" y="103" width="20" height="14" rx="2" fill="white" opacity="0.7"/>
  
  <!-- Bottom shelf -->
  <rect x="65" y="136" width="12" height="16" rx="2" fill="white" opacity="0.8"/>
  <rect x="90" y="140" width="25" height="10" rx="2" fill="white" opacity="0.7"/>
  <rect x="125" y="135" width="15" height="18" rx="2" fill="white" opacity="0.9"/>
  
  <!-- Smart dot over the i in "Pantry" -->
  <circle cx="100" cy="40" r="7" fill="white" />
  
  <!-- Gradient definitions -->
  <defs>
    <linearGradient id="paint0_linear" x1="0" y1="0" x2="200" y2="200" gradientUnits="userSpaceOnUse">
      <stop offset="0" stop-color="#667eea"/>
      <stop offset="1" stop-color="#764ba2"/>
    </linearGradient>
  </defs>
</svg>
