<?xml version="1.0" encoding="UTF-8" standalone="no"?>
<svg width="80" height="80" viewBox="0 0 80 80" fill="none" xmlns="http://www.w3.org/2000/svg">
  <circle cx="40" cy="40" r="38" fill="#E0F7FA"/>
  <path d="M45 20H35C32.79 20 31 21.79 31 24V56C31 58.21 32.79 60 35 60H45C47.21 60 49 58.21 49 56V24C49 21.79 47.21 20 45 20ZM46 56C46 56.55 45.55 57 45 57H35C34.45 57 34 56.55 34 56V24C34 23.45 34.45 23 35 23H37V25C37 25.55 37.45 26 38 26H42C42.55 26 43 25.55 43 25V23H45C45.55 23 46 23.45 46 24V56Z" fill="#00BCD4"/>
  <path d="M40 31C36.69 31 34 33.69 34 37C34 40.31 36.69 43 40 43C43.31 43 46 40.31 46 37C46 33.69 43.31 31 40 31ZM40 40C38.34 40 37 38.66 37 37C37 35.34 38.34 34 40 34C41.66 34 43 35.34 43 37C43 38.66 41.66 40 40 40Z" fill="#00BCD4"/>
  <path d="M39 44H41V53H39V44Z" fill="#00BCD4"/>
</svg>
