<?xml version="1.0" encoding="UTF-8" standalone="no"?>
<svg width="80" height="80" viewBox="0 0 80 80" fill="none" xmlns="http://www.w3.org/2000/svg">
  <circle cx="40" cy="40" r="38" fill="#E1F5FE"/>
  <path d="M40 15C35.0312 15 31 19.0312 31 24V56C31 60.9688 35.0312 65 40 65C44.9688 65 49 60.9688 49 56V24C49 19.0312 44.9688 15 40 15ZM40 18C43.3438 18 46 20.6562 46 24V28H34V24C34 20.6562 36.6562 18 40 18ZM40 62C36.6562 62 34 59.3438 34 56V31H46V56C46 59.3438 43.3438 62 40 62Z" fill="#0288D1"/>
</svg>
