<?xml version="1.0" encoding="UTF-8" standalone="no"?>
<svg width="80" height="80" viewBox="0 0 80 80" fill="none" xmlns="http://www.w3.org/2000/svg">
  <circle cx="40" cy="40" r="38" fill="#F3E5F5"/>
  <path d="M55 22H50V20C50 18.9 49.1 18 48 18H32C30.9 18 30 18.9 30 20V22H25C23.9 22 23 22.9 23 24V56C23 58.21 24.79 60 27 60H53C55.21 60 57 58.21 57 56V24C57 22.9 56.1 22 55 22ZM33 21H47V22H33V21ZM54 56C54 56.55 53.55 57 53 57H27C26.45 57 26 56.55 26 56V25H30V28H50V25H54V56Z" fill="#9C27B0"/>
  <path d="M35 42H45V46H35V42Z" fill="#9C27B0"/>
  <path d="M35 32H45V36H35V32Z" fill="#9C27B0"/>
</svg>
