<?xml version="1.0" encoding="UTF-8" standalone="no"?>
<svg width="80" height="80" viewBox="0 0 80 80" fill="none" xmlns="http://www.w3.org/2000/svg">
  <circle cx="40" cy="40" r="38" fill="#FFEBEE"/>
  <path d="M50 19H30C27.24 19 25 21.24 25 24V56C25 58.76 27.24 61 30 61H50C52.76 61 55 58.76 55 56V24C55 21.24 52.76 19 50 19ZM37 52C37 53.1 36.1 54 35 54H33C31.9 54 31 53.1 31 52V50C31 48.9 31.9 48 33 48H35C36.1 48 37 48.9 37 50V52ZM37 42C37 43.1 36.1 44 35 44H33C31.9 44 31 43.1 31 42V40C31 38.9 31.9 38 33 38H35C36.1 38 37 38.9 37 40V42ZM37 32C37 33.1 36.1 34 35 34H33C31.9 34 31 33.1 31 32V30C31 28.9 31.9 28 33 28H35C36.1 28 37 28.9 37 30V32ZM49 52C49 53.1 48.1 54 47 54H45C43.9 54 43 53.1 43 52V50C43 48.9 43.9 48 45 48H47C48.1 48 49 48.9 49 50V52ZM49 42C49 43.1 48.1 44 47 44H45C43.9 44 43 43.1 43 42V40C43 38.9 43.9 38 45 38H47C48.1 38 49 38.9 49 40V42ZM49 32C49 33.1 48.1 34 47 34H45C43.9 34 43 33.1 43 32V30C43 28.9 43.9 28 45 28H47C48.1 28 49 28.9 49 30V32Z" fill="#F44336"/>
</svg>
