<?xml version="1.0" encoding="UTF-8" standalone="no"?>
<svg width="80" height="80" viewBox="0 0 80 80" fill="none" xmlns="http://www.w3.org/2000/svg">
  <circle cx="40" cy="40" r="38" fill="#E8F5E9"/>
  <path d="M52 22H28C26.9 22 26 22.9 26 24V56C26 57.1 26.9 58 28 58H52C53.1 58 54 57.1 54 56V24C54 22.9 53.1 22 52 22ZM51 49.5C51 51.43 49.43 53 47.5 53H32.5C30.57 53 29 51.43 29 49.5V30.5C29 28.57 30.57 27 32.5 27H47.5C49.43 27 51 28.57 51 30.5V49.5ZM44 33.5C44 34.33 43.33 35 42.5 35H37.5C36.67 35 36 34.33 36 33.5V32.5C36 31.67 36.67 31 37.5 31H42.5C43.33 31 44 31.67 44 32.5V33.5ZM44 38.5C44 39.33 43.33 40 42.5 40H37.5C36.67 40 36 39.33 36 38.5V37.5C36 36.67 36.67 36 37.5 36H42.5C43.33 36 44 36.67 44 37.5V38.5ZM44 43.5C44 44.33 43.33 45 42.5 45H37.5C36.67 45 36 44.33 36 43.5V42.5C36 41.67 36.67 41 37.5 41H42.5C43.33 41 44 41.67 44 42.5V43.5ZM44 48.5C44 49.33 43.33 50 42.5 50H37.5C36.67 50 36 49.33 36 48.5V47.5C36 46.67 36.67 46 37.5 46H42.5C43.33 46 44 46.67 44 47.5V48.5Z" fill="#4CAF50"/>
</svg>
