<?xml version="1.0" encoding="UTF-8" standalone="no"?>
<svg width="80" height="80" viewBox="0 0 80 80" fill="none" xmlns="http://www.w3.org/2000/svg">
  <circle cx="40" cy="40" r="38" fill="#FFF3E0"/>
  <path d="M52 22H28C26.9 22 26 22.9 26 24V56C26 57.1 26.9 58 28 58H52C53.1 58 54 57.1 54 56V24C54 22.9 53.1 22 52 22ZM40 53.5C34.75 53.5 30.5 49.25 30.5 44C30.5 41.17 31.67 38.67 33.5 36.83L30 33.33V30H33.33L36.83 33.5C38.67 31.67 41.17 30.5 44 30.5C49.25 30.5 53.5 34.75 53.5 40C53.5 45.25 49.25 49.5 44 49.5C43 49.5 42 49.33 41.17 49L39 51.17V53.5H40ZM45 37C43.33 37 42 38.33 42 40C42 41.67 43.33 43 45 43C46.67 43 48 41.67 48 40C48 38.33 46.67 37 45 37Z" fill="#FF9800"/>
</svg>
