<?xml version="1.0" encoding="UTF-8" standalone="no"?>
<svg width="80" height="80" viewBox="0 0 80 80" fill="none" xmlns="http://www.w3.org/2000/svg">
  <circle cx="40" cy="40" r="38" fill="#FFF8E1"/>
  <path d="M40 20C29.5 20 21 28.5 21 39C21 46.3 25 52.7 31 56V58C31 59.1 31.9 60 33 60H47C48.1 60 49 59.1 49 58V56C55 52.7 59 46.3 59 39C59 28.5 50.5 20 40 20ZM46 55H34V53H46V55ZM46.2 50H33.8C29.3 47.7 26 43.7 26 39C26 31.3 32.3 25 40 25C47.7 25 54 31.3 54 39C54 43.7 50.7 47.7 46.2 50Z" fill="#FFC107"/>
  <path d="M32 38H48V41H32V38Z" fill="#FFC107"/>
  <path d="M35 32H45V35H35V32Z" fill="#FFC107"/>
  <path d="M38 44H42V47H38V44Z" fill="#FFC107"/>
</svg>
