<?xml version="1.0" encoding="UTF-8" standalone="no"?>
<svg width="400" height="300" viewBox="0 0 400 300" fill="none" xmlns="http://www.w3.org/2000/svg">
  <!-- Background -->
  <rect width="400" height="300" rx="20" fill="url(#welcome_gradient)"/>
  
  <!-- Kitchen Counter -->
  <rect x="50" y="180" width="300" height="80" rx="5" fill="#E0E0E0"/>
  <rect x="50" y="180" width="300" height="15" rx="2" fill="#BDBDBD"/>
  
  <!-- Pantry Cabinet -->
  <rect x="100" y="50" width="200" height="130" rx="5" fill="#A1887F"/>
  <rect x="110" y="60" width="180" height="110" rx="2" fill="#D7CCC8"/>
  <path d="M110 115H290" stroke="#A1887F" stroke-width="2"/>
  
  <!-- Cabinet Handles -->
  <circle cx="200" cy="90" r="5" fill="#8D6E63"/>
  <circle cx="200" cy="140" r="5" fill="#8D6E63"/>
  
  <!-- Items on counter -->
  <rect x="80" y="150" width="40" height="30" rx="2" fill="#B39DDB"/>
  <rect x="140" y="160" width="50" height="20" rx="2" fill="#FFCC80"/>
  <circle cx="220" cy="170" r="15" fill="#81C784"/>
  <rect x="250" y="155" width="20" height="25" rx="2" fill="#90CAF9"/>
  <rect x="280" y="160" width="30" height="20" rx="5" fill="#EF9A9A"/>
  
  <!-- Character -->
  <circle cx="320" cy="130" r="25" fill="#9FA8DA"/>
  <circle cx="310" cy="123" r="5" fill="white"/>
  <circle cx="330" cy="123" r="5" fill="white"/>
  <path d="M312 140C312 140 320 146 328 140" stroke="white" stroke-width="3" stroke-linecap="round"/>
  
  <defs>
    <linearGradient id="welcome_gradient" x1="0" y1="0" x2="400" y2="300" gradientUnits="userSpaceOnUse">
      <stop offset="0" stop-color="#667eea" stop-opacity="0.2"/>
      <stop offset="1" stop-color="#764ba2" stop-opacity="0.2"/>
    </linearGradient>
  </defs>
</svg>
