<?xml version="1.0" encoding="UTF-8" standalone="no"?>
<svg width="80" height="80" viewBox="0 0 80 80" fill="none" xmlns="http://www.w3.org/2000/svg">
  <circle cx="40" cy="40" r="38" fill="#E3F2FD"/>
  <path d="M57 29H53V27C53 25.9 52.1 25 51 25H29C27.9 25 27 25.9 27 27V29H23C21.9 29 21 29.9 21 31V33C21 34.1 21.9 35 23 35V51C23 53.2 24.8 55 27 55H53C55.2 55 57 53.2 57 51V35C58.1 35 59 34.1 59 33V31C59 29.9 58.1 29 57 29ZM51 51H29V27H51V51ZM55 33H57V31H55V33ZM23 31V33H25V31H23ZM39 46H43C44.1 46 45 45.1 45 44V42C45 40.9 44.1 40 43 40H41V38H45V35H39V40C39 41.1 39.9 42 41 42H43V44H39V46ZM35 35H31V38H33V46H35V35Z" fill="#2196F3"/>
</svg>
