<?xml version="1.0" encoding="UTF-8" standalone="no"?>
<svg width="80" height="80" viewBox="0 0 80 80" fill="none" xmlns="http://www.w3.org/2000/svg">
  <circle cx="40" cy="40" r="38" fill="#FFEBEE"/>
  <path d="M52 20H28C25.8 20 24 21.8 24 24V56C24 58.2 25.8 60 28 60H52C54.2 60 56 58.2 56 56V24C56 21.8 54.2 20 52 20ZM52 56H28V52H52V56ZM52 48H28V24H52V48ZM36 32C36 34.2 34.2 36 32 36C29.8 36 28 34.2 28 32C28 29.8 29.8 28 32 28C34.2 28 36 29.8 36 32ZM48 44H32C32 41 28 39.4 28 36V34H32.2C33.2 36 36 37.2 38 37.2C40 37.2 42.8 36 43.8 34H48V36C48 39.4 44 41 44 44Z" fill="#F44336"/>
</svg>
