<?xml version="1.0" encoding="UTF-8" standalone="no"?>
<svg width="60" height="60" viewBox="0 0 60 60" fill="none" xmlns="http://www.w3.org/2000/svg">
  <circle cx="30" cy="30" r="28" fill="#FFF3E0"/>
  <path d="M30 15C21.7 15 15 21.7 15 30C15 38.3 21.7 45 30 45C38.3 45 45 38.3 45 30C45 21.7 38.3 15 30 15ZM30 42C23.4 42 18 36.6 18 30C18 23.4 23.4 18 30 18C36.6 18 42 23.4 42 30C42 36.6 36.6 42 30 42ZM30 27C30.8 27 31.5 27.7 31.5 28.5V36C31.5 36.8 30.8 37.5 30 37.5C29.2 37.5 28.5 36.8 28.5 36V28.5C28.5 27.7 29.2 27 30 27ZM31.5 24C31.5 24.8 30.8 25.5 30 25.5C29.2 25.5 28.5 24.8 28.5 24C28.5 23.2 29.2 22.5 30 22.5C30.8 22.5 31.5 23.2 31.5 24Z" fill="#FF9800"/>
</svg>
